# xmcd CD database file
#
# Track frame offsets:
#	150
#	13820
#	24091
#	35920
#	48590
#	58462
#	83820
#	97023
#	105775
#	125108
#	136113
#	147838
#	161179
#	172835
#	183869
#	194891
#	205705
#	219622
#	232319
#	244040
#	255385
#	267560
#	279786
#	291997
#
# Disc length: 4045 seconds
#
# Revision: 0
# Processed by: cddbd v1.5.1PL0 Copyright (c) Steve Scherf et al.
# Submitted via: CDex 1.51
#
DISCID=6b0fcb18
DTITLE=Jim Reeves - Talkin' To Your Heart (1961) - A Touch Of Velvet (1962)
DYEAR=1961
DGENRE=Country
TTITLE0=Trouble In The Amen Corner
TTITLE1=I'm Waiting For The Ships That Never Come In
TTITLE2=Annabel Lee
TTITLE3=The Gun
TTITLE4=The Farmer And The Lord
TTITLE5=The Shifting Whispering Sands
TTITLE6=Old Tige
TTITLE7=Why Do I Love You
TTITLE8=The Spell Of The Yukon
TTITLE9=Men With Broken Hearts
TTITLE10=Too Many Parties And Too Many Pals
TTITLE11=Seven Days
TTITLE12=Have You Ever Been Lonely
TTITLE13=There's Always Me
TTITLE14=Just Walking In The Rain
TTITLE15=Be Honest With Me
TTITLE16=I Fall To Pieces
TTITLE17=It's No Sin
TTITLE18=Welcome To My World
TTITLE19=Am I That Easy To Forget
TTITLE20=Blue Skies
TTITLE21=All Dressed Up And Lonely
TTITLE22=The Wild Rose
TTITLE23=I'm A Fool To Care
EXTD=YEAR: 1961
EXTT0=
EXTT1=
EXTT2=
EXTT3=
EXTT4=
EXTT5=
EXTT6=
EXTT7=
EXTT8=
EXTT9=
EXTT10=
EXTT11=
EXTT12=
EXTT13=
EXTT14=
EXTT15=
EXTT16=
EXTT17=
EXTT18=
EXTT19=
EXTT20=
EXTT21=
EXTT22=
EXTT23=
PLAYORDER=
